<svg enable-background="new 0 0 125.668 125.668" viewBox="0 0 125.668 125.668" xmlns="http://www.w3.org/2000/svg"><path d="m84.17 76.55-16.9-9.557v-34.891c0-2.541-2.061-4.601-4.602-4.601s-4.601 2.061-4.601 4.601v37.575c0 .059.016.115.017.174.006.162.025.319.048.479.021.146.042.291.076.433.035.141.082.277.129.414.051.146.1.287.164.426.061.133.134.257.208.383.075.127.148.254.234.374.088.122.188.235.288.349.097.11.192.217.299.317.107.101.222.19.339.28.126.098.253.191.39.276.052.031.092.073.145.102l19.236 10.878c.716.404 1.493.597 2.261.597 1.605 0 3.163-.841 4.009-2.337 1.251-2.214.471-5.021-1.74-6.272z"/><path d="m62.834 0c-34.647 0-62.834 28.187-62.834 62.834 0 34.646 28.187 62.834 62.834 62.834 34.646 0 62.834-28.188 62.834-62.834 0-34.647-28.188-62.834-62.834-62.834zm4 115.501v-9.167h-8v9.167c-24.77-1.865-44.823-20.872-48.292-45.167h9.459v-8h-9.988c.258-27.558 21.716-50.126 48.821-52.167v9.167h8v-9.167c27.104 2.041 48.563 24.609 48.821 52.167h-9.487v8h8.958c-3.469 24.295-23.521 43.302-48.292 45.167z"/></svg>