<svg enable-background="new 0 0 114.822 114.822" viewBox="0 0 114.822 114.822" xmlns="http://www.w3.org/2000/svg"><path d="m100.341 47.517c-1.502-15.815-14.816-28.187-31.026-28.187-13.516 0-25.019 8.602-29.341 20.63-2.222-1.067-4.704-1.682-7.334-1.682-8.695 0-15.853 6.535-16.858 14.961-9.098 2.51-15.782 10.838-15.782 20.735 0 11.884 9.634 21.519 21.517 21.519h24.522v-18.223h-10.845c-1.771 0-3.364-1.121-4.029-2.832-.667-1.708-.267-3.669 1.002-4.954l23.948-24.163c1.687-1.703 4.366-1.703 6.052 0l23.681 23.896c.985.829 1.615 2.097 1.615 3.521 0 2.502-1.947 4.532-4.348 4.532-.008 0-.017 0-.024 0h-11.678v18.222h13.182c.815 0 1.616-.05 2.411-.14.866.09 1.746.14 2.638.14 13.908 0 25.178-11.277 25.178-25.18.001-10.081-5.926-18.772-14.481-22.795z"/></svg>