<svg enable-background="new 0 0 299.998 299.998" viewBox="0 0 299.998 299.998" xmlns="http://www.w3.org/2000/svg"><path d="m149.995 0c-82.839 0-149.995 67.159-149.995 149.997 0 82.837 67.156 150 149.995 150s150.003-67.163 150.003-150c-.001-82.838-67.164-149.997-150.003-149.997zm-39.028 105.357c2.075-2.075 4.793-3.112 7.511-3.112s5.434 1.037 7.508 3.112l13.297 13.295v-3.911-52.264c0-5.867 4.754-10.621 10.621-10.621s10.621 4.754 10.621 10.621v52.263 4.63l4.63-4.63 9.386-9.384c2.075-2.075 4.79-3.112 7.508-3.112s5.436 1.037 7.511 3.112c2.552 2.549 3.522 6.079 2.933 9.384 0 .003-.003.005-.003.008-.044.239-.119.469-.179.703-.091.366-.189.729-.322 1.084-.088.239-.189.472-.296.705-.166.371-.358.726-.568 1.079-.112.187-.215.373-.34.552-.363.524-.76 1.032-1.227 1.499l-15.115 15.115-16.591 16.591c-2.077 2.075-4.793 3.105-7.508 3.105-.026 0-.052 0-.078 0s-.054 0-.078 0c-2.715 0-5.431-1.03-7.508-3.105l-16.591-16.591-15.115-15.115c-.467-.467-.864-.973-1.222-1.496-.127-.184-.231-.373-.345-.56-.207-.35-.397-.703-.563-1.069-.109-.239-.213-.475-.301-.718-.127-.348-.223-.7-.314-1.056-.062-.246-.143-.485-.187-.734-.598-3.301.37-6.831 2.925-9.38zm120.607 103.958h-.003c0 14.337-14.057 25.568-32.005 25.568h-99.132c-17.945 0-32.005-11.23-32.005-25.568v-69.005c0-12.117 10.058-21.988 24.004-24.761.604 5.981 3.224 11.526 7.534 15.834l4.108 4.108h-3.641c-7.265 0-11.256 3.621-11.256 4.819v69.005c0 1.201 3.992 4.819 11.256 4.819h99.135c7.265 0 11.256-3.621 11.256-4.819v-69.005c0-1.198-3.992-4.819-11.256-4.819h-3.12l4.111-4.111c4.282-4.279 6.894-9.786 7.516-15.727 13.681 2.913 23.498 12.69 23.498 24.66z"/></svg>