<svg enable-background="new 0 0 41.712 41.712" viewBox="0 0 41.712 41.712" xmlns="http://www.w3.org/2000/svg"><path d="m31.586 21.8c.444-.444.444-1.143 0-1.587-.429-.444-1.143-.444-1.571 0l-8.047 8.032v-26.539c0-.619-.492-1.127-1.111-1.127s-1.127.508-1.127 1.127v26.539l-8.031-8.032c-.444-.444-1.159-.444-1.587 0-.444.444-.444 1.143 0 1.587l9.952 9.952c.429.429 1.143.429 1.587 0zm7.888 7.286c0-.619.492-1.111 1.111-1.111s1.127.492 1.127 1.111v10.92c0 .619-.508 1.127-1.127 1.127h-39.474c-.619 0-1.111-.508-1.111-1.127v-10.92c0-.619.492-1.111 1.111-1.111s1.127.492 1.127 1.111v9.809h37.236z" fill="#1e201d"/></svg>