<svg enable-background="new 0 0 300 300" viewBox="0 0 300 300" xmlns="http://www.w3.org/2000/svg"><path d="m204.572 164.656c1.678 6.632-16.682 4.528-21.166 10.737-4.487 6.206-15.45 2.036-17.992.843s-12.278 2.783-11.427-3.976c.846-6.761 6.769-7.158 13.121-9.941 6.349-2.78 15.507-12.024 11.007-13.232-21.187-5.683-28.415-25.586-28.415-25.586-1.271-.239-.952-14.07-6.453-14.467-5.506-.399-8.471 1.59-16.511 0-8.045-1.59-6.349-6.759-7.62-17.893-1.268-11.134 3.39-7.555 5.906-11.132.22-.314.506-.594.786-.874-29.458 10.086-50.705 38.035-50.705 70.867 0 .052.003.104.003.156 5.475.353 15.445 1.509 15.914 5.265.648 5.187 0 11.671 4.539 13.616s5.836-7.781 9.726-5.187 14.265 5.091 14.265 9.677c0 4.585-1.945 11.72 0 13.017s9.721 10.374 9.723 11.671c.003 1.297 2.741 7.892 1.924 10.413-.677 2.09-4.093 8.58-7.405 11.531 8.162 3.058 16.991 4.741 26.208 4.741 41.3 0 74.9-33.6 74.9-74.9 0-12.231-2.967-23.778-8.188-33.986.501 7.617.163 14.558 1.831 16.832 7.299 9.939-17.781 16.776-13.971 31.808z"/><path d="m149.997 0c-82.839 0-149.994 67.161-149.994 149.997s67.155 150.003 149.994 150.003 150-67.163 150-150.003-67.16-149.997-150-149.997zm.003 240.462c-49.88 0-90.462-40.579-90.462-90.462s40.582-90.462 90.462-90.462 90.462 40.579 90.462 90.462-40.582 90.462-90.462 90.462z"/></svg>