<svg enable-background="new 0 0 109.294 109.294" viewBox="0 0 109.294 109.294" xmlns="http://www.w3.org/2000/svg"><path d="m54.648 48.141 46.415-28.941c-.505-.08-1.017-.132-1.542-.132h-89.746c-.525 0-1.038.054-1.541.132z"/><path d="m57.569 59.331c-.062.04-.13.066-.194.104-.067.037-.139.073-.206.107-.365.188-.741.339-1.125.439-.04.011-.078.017-.116.025-.423.099-.848.16-1.274.16-.001 0-.003 0-.004 0s-.003 0-.005 0c-.426 0-.852-.06-1.273-.16-.039-.009-.079-.015-.118-.025-.384-.101-.757-.252-1.124-.439-.069-.034-.139-.07-.207-.107-.065-.037-.132-.063-.196-.104l-51.574-32.159c-.093.543-.153 1.099-.153 1.671v51.609c0 5.398 4.375 9.774 9.774 9.774h89.746c5.398 0 9.774-4.376 9.774-9.774v-51.609c0-.572-.059-1.127-.154-1.671z"/></svg>