<svg enable-background="new 0 0 118.536 118.536" viewBox="0 0 118.536 118.536" xmlns="http://www.w3.org/2000/svg"><path d="m103.884 18.273v-.281c0-9.937-6.001-17.992-13.402-17.992h-62.425c-7.406 0-13.408 8.056-13.408 17.992v.281z"/><path d="m104.361 33.61c-1.495-1.749-3.68-2.758-5.983-2.758h-78.218c-2.304 0-4.491 1.009-5.986 2.758-1.496 1.752-2.149 4.068-1.79 6.345l11.373 71.939c.604 3.827 3.9 6.642 7.776 6.642h55.47c3.873 0 7.17-2.814 7.776-6.642l11.373-71.939c.36-2.277-.295-4.593-1.791-6.345zm-67.159 74.233c-.132.012-.266.018-.396.018-2.307 0-4.271-1.765-4.475-4.108l-4.703-53.772c-.218-2.473 1.615-4.655 4.088-4.869 2.454-.266 4.657 1.612 4.872 4.088l4.705 53.773c.215 2.473-1.615 4.657-4.091 4.87zm26.564-4.478c0 2.482-2.017 4.496-4.5 4.496-2.485 0-4.498-2.014-4.498-4.496v-53.98c0-2.485 2.014-4.498 4.498-4.498s4.5 2.015 4.5 4.498zm21.862.387c-.203 2.344-2.165 4.108-4.474 4.108-.128 0-.265-.006-.397-.018-2.474-.213-4.307-2.402-4.088-4.87l4.701-53.773c.216-2.476 2.403-4.343 4.873-4.088 2.477.214 4.304 2.397 4.087 4.869z"/></svg>