<svg enable-background="new 0 0 111.966 111.966" viewBox="0 0 111.966 111.966" xmlns="http://www.w3.org/2000/svg"><path d="m105.612 40.379-46.739-39.319c-1.683-1.413-4.136-1.413-5.817 0l-47.07 39.598c-1.453 1.222-1.986 3.222-1.336 5.005.651 1.783 2.346 2.971 4.245 2.971h6.867v52.489c0 5.988 4.855 10.842 10.842 10.842h15.358v-30.716c0-1.994 1.619-3.613 3.614-3.613h20.779c1.996 0 3.613 1.619 3.613 3.613v30.717h15.359c5.987 0 10.841-4.857 10.841-10.842v-52.49h6.866c.014.001.03 0 .039 0 2.495 0 4.517-2.022 4.517-4.518-.002-1.554-.785-2.926-1.978-3.737z" fill="#020202"/></svg>