<svg enable-background="new 0 0 300 300" viewBox="0 0 300 300" xmlns="http://www.w3.org/2000/svg"><path d="m202.105 96.266c-5.574-5.405-11.98-9.957-19.011-13.437 3.395 5.159 6.383 11.129 8.867 17.787 3.567-1.279 6.957-2.734 10.144-4.35z"/><path d="m112.603 144.813h32.207v-27.29c-9.625-.418-18.931-1.774-27.601-3.989-2.596 9.482-4.222 20.1-4.606 31.279z"/><path d="m116.579 183.953c8.862-2.324 18.394-3.758 28.231-4.194v-24.572h-32.205c.359 10.203 1.754 19.934 3.974 28.766z"/><path d="m120.412 103.666c7.648 1.904 15.87 3.079 24.398 3.47v-31.836c-1.502.104-2.988.252-4.464.444-7.972 4.834-14.954 14.811-19.934 27.922z"/><path d="m96.922 202.79c6.686 6.72 14.636 12.174 23.456 15.989-4.272-6.095-7.939-13.456-10.841-21.799-4.528 1.67-8.755 3.613-12.615 5.81z"/><path d="m120.288 81.26c-8.019 3.481-15.307 8.325-21.586 14.239 3.613 1.937 7.521 3.639 11.656 5.125 2.74-7.348 6.094-13.863 9.93-19.364z"/><path d="m107.195 110.479c-5.638-2.002-10.906-4.396-15.707-7.158-9.231 11.547-15.113 25.866-16.189 41.492h26.914c.381-12.359 2.13-23.952 4.982-34.334z"/><path d="m102.216 155.187h-26.916c1.017 14.791 6.328 28.423 14.721 39.627 4.995-3.001 10.551-5.61 16.542-7.773-2.469-9.736-3.989-20.468-4.347-31.854z"/><path d="m140.536 224.283c1.413.176 2.837.319 4.274.418v-34.554c-8.831.415-17.359 1.681-25.262 3.719 5.056 14.383 12.46 25.341 20.988 30.417z"/><path d="m195.766 187c5.335 1.932 10.338 4.212 14.913 6.837 7.98-11.018 13.033-24.279 14.021-38.647h-24.595c-.357 11.367-1.872 22.087-4.339 31.81z"/><path d="m183.011 217.213c7.82-3.857 14.864-9.039 20.858-15.25-3.439-1.849-7.156-3.507-11.095-4.954-2.659 7.627-5.953 14.436-9.763 20.204z"/><path d="m149.997 0c-82.839 0-149.994 67.161-149.994 149.997s67.155 150.003 149.994 150.003 150-67.163 150-150.003-67.16-149.997-150-149.997zm.003 240.462c-49.88 0-90.462-40.579-90.462-90.462s40.582-90.462 90.462-90.462 90.462 40.579 90.462 90.462-40.582 90.462-90.462 90.462z"/><path d="m162.719 76.202c-2.474-.425-4.987-.726-7.534-.903v31.937c9.334-.275 18.352-1.512 26.711-3.597-4.822-12.687-11.521-22.444-19.177-27.437z"/><path d="m195.121 110.471c2.856 10.382 4.604 21.981 4.985 34.342h24.592c-1.045-15.227-6.658-29.209-15.484-40.595-4.36 2.378-9.075 4.474-14.093 6.253z"/><path d="m155.185 224.7c2.49-.169 4.949-.464 7.368-.871 8.201-5.262 15.307-16.002 20.212-29.948-8.613-2.223-17.955-3.543-27.58-3.833z"/><path d="m185.102 113.508c-9.384 2.402-19.493 3.813-29.917 4.103v27.202h34.534c-.387-11.186-2.016-21.815-4.617-31.305z"/><path d="m189.716 155.187h-34.531v24.486c10.732.288 21.052 1.722 30.573 4.207 2.212-8.81 3.6-18.516 3.958-28.693z"/></svg>