<svg enable-background="new 0 0 300 300" viewBox="0 0 300 300" xmlns="http://www.w3.org/2000/svg"><path d="m149.996 0c-82.839 0-149.995 67.161-149.995 149.997 0 82.84 67.156 150.003 149.995 150.003s150.003-67.163 150.003-150.003-67.164-149.997-150.003-149.997zm-59.678 204.463c-5.727 0-10.361-4.635-10.361-10.364 0-5.724 4.635-10.359 10.361-10.359 5.724 0 10.361 4.635 10.361 10.359 0 5.729-4.637 10.364-10.361 10.364zm0-44.102c-5.727 0-10.361-4.635-10.361-10.367 0-5.724 4.635-10.359 10.361-10.359 5.724 0 10.361 4.635 10.361 10.359 0 5.733-4.637 10.367-10.361 10.367zm0-44.101c-5.727 0-10.361-4.635-10.361-10.364 0-5.724 4.635-10.359 10.361-10.359 5.724 0 10.361 4.635 10.361 10.359 0 5.729-4.637 10.364-10.361 10.364zm129.726 87.554h-97.143c-5.729 0-10.374-4.645-10.374-10.374s4.645-10.374 10.374-10.374h97.143c5.729 0 10.374 4.645 10.374 10.374s-4.645 10.374-10.374 10.374zm0-43.766h-97.143c-5.729 0-10.374-4.645-10.374-10.374s4.645-10.374 10.374-10.374h97.143c5.729 0 10.374 4.645 10.374 10.374 0 5.728-4.645 10.374-10.374 10.374zm0-43.767h-97.143c-5.729 0-10.374-4.645-10.374-10.374s4.645-10.374 10.374-10.374h97.143c5.729 0 10.374 4.645 10.374 10.374s-4.645 10.374-10.374 10.374z"/></svg>