<svg enable-background="new 0 0 116.437 116.437" viewBox="0 0 116.437 116.437" xmlns="http://www.w3.org/2000/svg"><path d="m106.675 24.055h-96.914c-5.39 0-9.761 4.372-9.761 9.761v48.804c0 5.39 4.371 9.762 9.761 9.762h96.914c5.39 0 9.762-4.372 9.762-9.762v-48.804c0-5.389-4.372-9.761-9.762-9.761zm-99.116 62.374v-55.582h100.505v55.583h-100.505z"/><path d="m17.32 76.668h80.986v-36.06h-80.986zm40.899-31.316c7.339 0 13.287 5.95 13.287 13.287 0 7.34-5.947 13.286-13.287 13.286s-13.286-5.946-13.286-13.286c0-7.337 5.947-13.287 13.286-13.287z"/></svg>