<svg enable-background="new 0 0 108.27 108.27" viewBox="0 0 108.27 108.27" xmlns="http://www.w3.org/2000/svg"><path d="m51.954 66.588c-9.284-7.634-15.483-17.054-18.742-22.414l-2.431-4.583c.85-.912 7.332-7.853 10.141-11.619 3.53-4.729-1.588-9-1.588-9s-14.401-14.403-17.683-17.26c-3.282-2.861-7.06-1.272-7.06-1.272-6.898 4.457-14.049 8.332-14.478 26.968-.016 17.448 13.229 35.444 27.552 49.376 14.346 15.734 34.043 31.504 53.086 31.486 18.634-.425 22.508-7.575 26.965-14.473 0 0 1.59-3.775-1.268-7.06-2.86-3.284-17.265-17.688-17.265-17.688s-4.268-5.119-8.998-1.586c-3.525 2.635-9.855 8.496-11.38 9.917.003.005-10.586-5.64-16.851-10.792z"/></svg>