<svg enable-background="new 0 0 299.995 299.995" viewBox="0 0 299.995 299.995" xmlns="http://www.w3.org/2000/svg"><path d="m143.511 154.004c19.146 0 23.718-15.613 23.718-28.711s-10.621-23.718-23.718-23.718-23.721 10.621-23.721 23.718c0 13.098 6.292 28.711 23.721 28.711z"/><path d="m146.815 157.301h-3.304-3.304c-13.002 0-32.498 11.91-32.498 26.61s-4.409 26.615 8.59 26.615h27.214 27.214c12.999 0 8.59-11.915 8.59-26.615s-19.5-26.61-32.502-26.61z"/><path d="m149.992.001c-82.836 0-149.992 67.158-149.992 149.997s67.156 149.997 149.992 149.997c82.842 0 150.003-67.161 150.003-149.997 0-82.841-67.161-149.997-150.003-149.997zm60.955 217.131v10.374c0 5.729-4.645 10.374-10.374 10.374h-10.374-57.256-36.114c-11.458 0-20.749-9.29-20.749-20.749v-130.542c0-11.458 9.29-20.749 20.749-20.749h36.113 57.256 10.374c5.729 0 10.374 4.645 10.374 10.374v10.375h.001zm20.748-130.543v130.543 10.374c0 5.729-4.645 10.374-10.374 10.374h-2.806c1.774-3.058 2.806-6.593 2.806-10.374v-10.374-130.543-10.374c0-3.781-1.032-7.319-2.806-10.374h2.806c5.729 0 10.374 4.645 10.374 10.374z"/></svg>