<svg enable-background="new 0 0 299.998 299.998" viewBox="0 0 299.998 299.998" xmlns="http://www.w3.org/2000/svg"><path d="m149.995.001c-82.839 0-149.995 67.159-149.995 149.998s67.156 149.997 149.995 149.997 150.003-67.161 150.003-149.997c-.001-82.842-67.164-149.998-150.003-149.998zm-79.245 226.843c-3.981 0-7.205-3.221-7.205-7.202v-139.289c0-3.979 3.224-7.202 7.205-7.202h158.497c3.981 0 7.205 3.224 7.205 7.202v77.081h-10.795-6.147v-67.6h-139.187v93.027h7.949l32.119-50.087 21.465 33.468 10.66 16.62h9.241l-15.281-23.827 9.959-15.53 25.241 39.355h10.177v8.375 16.412 10.374h10.374 13.053v8.824h-144.53zm136.514-105.802c0 8.232-6.676 14.908-14.908 14.908s-14.908-6.676-14.908-14.908 6.676-14.908 14.908-14.908 14.908 6.679 14.908 14.908zm34.803 86.604v23.423h-16.407v-4.225-19.198h-23.428v-16.412h23.428v-23.423h10.795 5.613v23.423h23.425v16.412z"/></svg>