<svg enable-background="new 0 0 300 300" viewBox="0 0 300 300" xmlns="http://www.w3.org/2000/svg"><path d="m149.996 0c-82.839 0-149.995 67.161-149.995 149.997s67.156 150.003 149.995 150.003 150.003-67.163 150.003-150.003-67.164-149.997-150.003-149.997zm-16.682 149.997c0 3.133-.571 6.111-1.569 8.901l41.868 20.142c4.819-5.275 11.731-8.595 19.436-8.595 14.553 0 26.353 11.796 26.353 26.348 0 14.555-11.803 26.356-26.359 26.356-14.553 0-26.359-11.801-26.359-26.356 0-1.395.145-2.757.353-4.09l-44.568-21.436c-4.357 3.188-9.71 5.089-15.52 5.089-14.555 0-26.356-11.796-26.356-26.361 0-14.55 11.801-26.348 26.356-26.348 5.81 0 11.165 1.901 15.523 5.086l44.571-21.431c-.21-1.336-.353-2.692-.353-4.09 0-14.558 11.803-26.356 26.359-26.356 14.553 0 26.356 11.798 26.356 26.356 0 14.555-11.803 26.356-26.356 26.356-7.7 0-14.617-3.328-19.436-8.598l-41.868 20.134c.999 2.786 1.569 5.771 1.569 8.893z"/></svg>