<svg enable-background="new 0 0 300 300" viewBox="0 0 300 300" xmlns="http://www.w3.org/2000/svg"><circle cx="150.001" cy="226.085" r="11.718"/><path d="m182.691 68.248h-65.382c-3.665 0-6.647 2.843-6.647 6.331v123.592c0 3.491 2.98 6.331 6.647 6.331h65.382c3.665 0 6.647-2.843 6.647-6.331v-123.592c-.002-3.491-2.982-6.331-6.647-6.331z"/><path d="m149.996 0c-82.839 0-149.995 67.161-149.995 149.997s67.156 150.003 149.995 150.003 150.003-67.163 150.003-150.003-67.164-149.997-150.003-149.997zm58.358 224.021c0 11.458-9.29 20.749-20.749 20.749h-75.214c-11.458 0-20.749-9.29-20.749-20.749v-148.698c0-11.458 9.29-20.749 20.749-20.749h75.214c11.458 0 20.749 9.29 20.749 20.749z"/></svg>