<svg enable-background="new 0 0 120.386 120.386" viewBox="0 0 120.386 120.386" xmlns="http://www.w3.org/2000/svg"><path d="m81.534 0h-42.682c-7.252 0-13.133 5.88-13.133 13.133v94.12c0 7.252 5.88 13.133 13.133 13.133h42.682c7.253 0 13.134-5.881 13.134-13.133v-94.12c-.001-7.253-5.882-13.133-13.134-13.133zm-21.341 114.452c-3.674 0-6.652-2.976-6.652-6.651s2.979-6.651 6.652-6.651c3.675 0 6.653 2.976 6.653 6.651s-2.978 6.651-6.653 6.651zm22.443-19.429h-44.887v-79.802c0-1.648 1.343-2.991 2.993-2.991h38.904c1.648 0 2.992 1.343 2.992 2.991z"/></svg>