<svg enable-background="new 0 0 299.99 299.99" viewBox="0 0 299.99 299.99" xmlns="http://www.w3.org/2000/svg"><path d="m149.995 0c-82.837 0-149.995 67.156-149.995 149.995s67.158 149.995 149.995 149.995c82.839 0 149.995-67.156 149.995-149.995s-67.156-149.995-149.995-149.995zm-60.514 211.219-37.176 9.959 10.177-37.973c-7.01-12.05-11.051-26.05-11.051-40.997 0-45.074 36.541-81.618 81.62-81.618 45.071 0 81.615 36.544 81.615 81.618s-36.544 81.62-81.615 81.62c-16.028.004-30.96-4.629-43.57-12.609zm158.279 25.757-33.818-9.059c-11.477 7.257-25.057 11.474-39.63 11.474-10.39 0-20.271-2.142-29.248-5.999 45.064-5.9 79.981-44.527 79.981-91.177 0-13.518-2.959-26.351-8.216-37.926 19.182 13.427 31.73 35.67 31.73 60.853 0 13.596-3.673 26.33-10.05 37.293z"/></svg>