<svg enable-background="new 0 0 119.713 119.713" viewBox="0 0 119.713 119.713" xmlns="http://www.w3.org/2000/svg"><path d="m33.92 71.21c-2.479-.827-5.128-1.281-7.887-1.281-13.744 0-24.89 11.14-24.89 24.889 0 2.831.479 5.549 1.35 8.085l16.865-16.865 15.915 15.915-16.64 16.641c2.338.728 4.823 1.116 7.401 1.119 13.748 0 24.891-11.146 24.891-24.892 0-3.388-.677-6.615-1.905-9.56l36.773-36.758c2.478.827 5.128 1.281 7.886 1.281 13.744 0 24.891-11.142 24.891-24.89 0-2.831-.479-5.548-1.35-8.084l-16.865 16.865-15.916-15.916 16.641-16.64c-2.338-.727-4.823-1.118-7.401-1.119-13.748 0-24.891 11.144-24.891 24.891 0 3.388.677 6.615 1.905 9.559z"/></svg>