<svg enable-background="new 0 0 54 54" viewBox="0 0 54 54" xmlns="http://www.w3.org/2000/svg"><path d="m27 53c-14.359 0-26-11.641-26-26 0-14.359 11.641-26 26-26 14.359 0 26 11.641 26 26 0 14.359-11.641 26-26 26z" fill="#4fba6f"/><path d="m27 54c-14.888 0-27-12.112-27-27s12.112-27 27-27 27 12.112 27 27-12.112 27-27 27zm0-52c-13.785 0-25 11.215-25 25s11.215 25 25 25 25-11.215 25-25-11.215-25-25-25z" fill="#4fba6f"/><path d="m22.294 40c-.256 0-.512-.098-.707-.293-.391-.391-.391-1.023 0-1.414l11.293-11.293-11.293-11.293c-.391-.391-.391-1.023 0-1.414s1.023-.391 1.414 0l11.498 11.498c.667.667.667 1.751 0 2.418l-11.498 11.498c-.195.195-.451.293-.707.293z" fill="#fff"/></svg>